# xmcd
#
# Track frame offsets:
#       150
#       15747
#       36380
#       58527
#       75425
#       93090
#       109457
#       131452
#       150760
#       169132
#       189212
#
# Disc length: 2792 seconds
#
# Revision: 0
# Processed by: cddbd v1.5.1PL0 Copyright (c) Steve Scherf et al.
# Submitted via: WhereIsIt 3.26
#
DISCID=790ae60b
DTITLE=Pierre Dumont - Nuits d'amour
DYEAR=1900
DGENRE=
TTITLE0=Samba
TTITLE1=Me And MRS Jones
TTITLE2=A Whiter Shade Of Pale
TTITLE3=Summertime
TTITLE4=Valparaiso
TTITLE5=Unchanged Melody
TTITLE6=Hold On My Heart
TTITLE7=Calling You Bagdad Cafe
TTITLE8=A Day In The Life Of A Fool (Black Orpheus)
TTITLE9=Slow Moi
TTITLE10=I Will Always Love You (The Bodyguard)
EXTD=
EXTT0=
EXTT1=
EXTT2=
EXTT3=
EXTT4=
EXTT5=
EXTT6=
EXTT7=
EXTT8=
EXTT9=
EXTT10=
PLAYORDER=
